<svg width="72" height="72" viewBox="0 0 72 72" fill="none" xmlns="http://www.w3.org/2000/svg">
<circle cx="38" cy="20" r="20" fill="url(#paint0_linear)"/>
<path d="M26.0152 47.1817C23.275 50.1448 19.3542 52 15 52C11.1078 52 7.56189 50.5176 4.896 48.0866L25.3675 67.582C28.084 70.3125 31.8445 72 35.9998 72C40.1338 72 43.8775 70.3281 46.5906 67.6211L66.9058 48.2656C70.0291 45.5156 72 41.4883 72 37C72 28.7148 65.2842 22 57 22C52.6858 22 48.7971 23.8242 46.0606 26.7383L26.0152 47.1817Z" fill="url(#paint1_linear)"/>
<path d="M18.134 22.3277C17.1232 22.113 16.0748 22 15 22C6.71582 22 0 28.7148 0 37C0 41.3961 1.89074 45.3501 4.90327 48.0935L4.896 48.0866C7.20725 50.1942 10.18 51.5888 13.4664 51.9226C13.9706 51.9738 14.4822 52 15 52L15.032 52C15.1872 51.9996 15.3419 51.997 15.496 51.992C19.6514 51.857 23.3795 50.0318 26.0152 47.1817L33.5453 39.5021C25.3805 37.6448 19.1151 30.7918 18.134 22.3277Z" fill="url(#paint2_linear)"/>
<defs>
<linearGradient id="paint0_linear" x1="18.8313" y1="-2.08421" x2="46.7467" y2="41.3206" gradientUnits="userSpaceOnUse">
<stop offset="0.176282" stop-color="#98BEF5"/>
<stop offset="0.94425" stop-color="#3F6FD1"/>
</linearGradient>
<linearGradient id="paint1_linear" x1="59.9468" y1="65.2513" x2="42.2294" y2="21.4286" gradientUnits="userSpaceOnUse">
<stop stop-color="#283B73"/>
<stop offset="1" stop-color="#436DCD"/>
</linearGradient>
<linearGradient id="paint2_linear" x1="0.949904" y1="19.0547" x2="22.78" y2="51.9978" gradientUnits="userSpaceOnUse">
<stop offset="0.1947" stop-color="#4A6DC4"/>
<stop offset="0.9988" stop-color="#16296F"/>
</linearGradient>
</defs>
</svg>
